<?xml version="1.0" encoding="UTF-8" standalone="no"?>
<!-- Created with Inkscape (http://www.inkscape.org/) -->

<svg
   width="603"
   height="259"
   viewBox="0 0 603 259"
   version="1.1"
   id="svg1"
   inkscape:version="1.4-beta (62f545ba, 2024-04-22)"
   sodipodi:docname="PlayerWindow.svg"
   inkscape:export-filename="PlayerWindow.svg"
   inkscape:export-xdpi="96"
   inkscape:export-ydpi="96"
   xmlns:inkscape="http://www.inkscape.org/namespaces/inkscape"
   xmlns:sodipodi="http://sodipodi.sourceforge.net/DTD/sodipodi-0.dtd"
   xmlns="http://www.w3.org/2000/svg"
   xmlns:svg="http://www.w3.org/2000/svg">
  <sodipodi:namedview
     id="namedview1"
     pagecolor="#ffffff"
     bordercolor="#000000"
     borderopacity="0.25"
     inkscape:showpageshadow="2"
     inkscape:pageopacity="0.0"
     inkscape:pagecheckerboard="0"
     inkscape:deskcolor="#d1d1d1"
     inkscape:document-units="px"
     inkscape:zoom="1.0482005"
     inkscape:cx="214.17658"
     inkscape:cy="293.35991"
     inkscape:window-width="1792"
     inkscape:window-height="1092"
     inkscape:window-x="0"
     inkscape:window-y="28"
     inkscape:window-maximized="0"
     inkscape:current-layer="layer1" />
  <defs
     id="defs1" />
  <g
     inkscape:label="Layer 1"
     inkscape:groupmode="layer"
     id="layer1">
    <path
       id="path1"
       style="fill:#000000;fill-opacity:1;stroke:none;stroke-width:0.794;stroke-linecap:round;stroke-miterlimit:10"
       d="M 49 0 L 0 49 L 0 259 L 3 259 L 3 68 L 60 8 L 600 8 L 600 259 L 603 259 L 603 0 L 49 0 z " />
    <path
       style="display:none;fill:#fe0043;fill-opacity:0.768688;stroke:none;stroke-width:0.793999;stroke-linecap:round;stroke-miterlimit:10"
       d="M 3,68 60,8 H 600 V 259 H 3"
       id="path3"
       inkscape:label="inner_base" />
    <path
       id="path4"
       style="fill:#fe0043;fill-opacity:0.768688;stroke:none;stroke-width:3.00094;stroke-linecap:round;stroke-miterlimit:10"
       d="M 60 8 L 3 68 L 3 106.5957 L 423.63672 259 L 552.73438 259 L 131.17188 8 L 60 8 z " />
    <path
       id="path5"
       style="fill:#fe5f00;fill-opacity:0.76868802;stroke:none;stroke-width:3.00094;stroke-linecap:round;stroke-miterlimit:10"
       d="M 3 106.5957 L 3 163.5 L 361.57227 259 L 423.63672 259 L 3 106.5957 z " />
    <path
       id="path6"
       style="fill:#febb00;fill-opacity:0.76868802;stroke:none;stroke-width:3.00094;stroke-linecap:round;stroke-miterlimit:10"
       d="M 3 163.5 L 3 259 L 361.57227 259 L 3 163.5 z " />
    <path
       id="path7"
       style="fill:#cddadc;fill-opacity:0.76868832;stroke:none;stroke-width:0.793999;stroke-linecap:round;stroke-miterlimit:10"
       inkscape:label="inner_base"
       d="M 131.17188 8 L 552.73438 259 L 600 259 L 600 8 L 131.17188 8 z " />
  </g>
</svg>
